<?xml version="1.0" standalone="no"?>
<!DOCTYPE svg PUBLIC "-//W3C//DTD SVG 20010904//EN"
 "http://www.w3.org/TR/2001/REC-SVG-20010904/DTD/svg10.dtd">
<svg version="1.0" xmlns="http://www.w3.org/2000/svg"
 width="1536.000000pt" height="1024.000000pt" viewBox="0 0 1536.000000 1024.000000"
 preserveAspectRatio="xMidYMid meet">

<g transform="translate(0.000000,1024.000000) scale(0.100000,-0.100000)"
fill="#000000" stroke="none">
<path d="M6770 6825 l0 -135 -107 82 c-60 45 -121 92 -136 105 -16 13 -32 23
-36 23 -6 0 -234 -170 -527 -395 l-130 -99 58 -43 58 -43 272 204 c243 183
274 203 290 192 11 -8 100 -74 198 -147 l179 -134 1 -312 0 -313 85 0 85 0 0
250 c0 230 5 273 25 240 4 -6 32 -27 63 -47 48 -30 67 -37 120 -39 62 -3 62
-3 62 24 -1 28 -4 31 -421 351 -39 29 -68 56 -65 59 3 2 11 1 18 -5 7 -5 25
-14 41 -21 l27 -12 0 175 0 175 -80 0 -80 0 0 -135z"/>
<path d="M6360 6335 l0 -65 70 0 70 0 0 65 0 65 -70 0 -70 0 0 -65z"/>
<path d="M6540 6333 l0 -63 70 0 70 0 0 64 0 65 -70 -2 -70 -2 0 -62z"/>
<path d="M6360 6175 l0 -65 70 0 70 0 0 65 0 65 -70 0 -70 0 0 -65z"/>
<path d="M6540 6175 l0 -65 65 0 65 0 0 65 0 65 -65 0 -65 0 0 -65z"/>
<path d="M5197 5920 c-69 -12 -133 -47 -172 -94 -19 -22 -77 -108 -129 -191
-52 -82 -138 -218 -192 -302 l-98 -152 -91 137 c-49 75 -146 224 -214 330 -68
106 -137 204 -153 217 -43 37 -95 46 -244 44 -142 -1 -207 -10 -169 -24 49
-17 63 -24 94 -51 33 -27 195 -264 438 -638 l123 -189 0 -359 c0 -396 -1 -400
-63 -438 l-32 -20 233 0 c148 0 232 4 232 10 0 6 -6 10 -13 10 -8 0 -24 12
-38 26 l-24 26 -3 386 -3 387 211 325 c256 393 288 439 335 475 49 37 123 64
198 72 l62 7 -45 7 c-59 10 -182 9 -243 -1z"/>
<path d="M5520 5684 c-19 -2 -106 -9 -192 -15 -87 -7 -158 -16 -158 -21 0 -4
6 -8 14 -8 8 0 24 -12 35 -26 21 -26 21 -34 21 -690 0 -732 5 -670 -60 -717
-24 -16 -9 -17 360 -13 353 3 392 5 468 25 198 50 329 135 424 275 82 119 120
262 120 446 0 362 -197 617 -543 704 -141 36 -346 52 -489 40z m325 -124 c98
-25 155 -58 225 -130 134 -135 200 -378 170 -625 -23 -192 -103 -345 -221
-424 -94 -63 -169 -83 -336 -89 l-143 -5 0 647 0 646 113 0 c81 0 136 -6 192
-20z"/>
<path d="M6795 5159 c-66 -21 -128 -38 -138 -38 -13 -1 -10 -8 15 -30 l33 -29
3 -384 c1 -211 0 -394 -3 -406 -3 -13 -20 -37 -38 -53 l-31 -29 207 0 207 0
-32 29 -33 29 -3 324 c-2 178 0 333 3 345 8 35 66 94 110 114 48 22 145 25
183 5 15 -8 36 -24 47 -35 l19 -22 17 63 c35 125 34 127 -5 143 -47 20 -135
19 -188 -2 -54 -20 -123 -75 -157 -124 -14 -21 -29 -38 -32 -39 -4 0 -9 19
-13 43 -11 76 -30 137 -40 136 -6 -1 -65 -18 -131 -40z"/>
<path d="M7769 5181 c-233 -63 -376 -275 -356 -530 8 -104 32 -173 92 -260 83
-123 201 -190 369 -211 133 -16 309 11 396 63 64 37 100 78 100 113 0 64 -8
68 -55 25 -109 -100 -258 -134 -400 -90 -118 36 -199 139 -219 279 l-6 45 212
0 c197 0 218 2 278 23 85 30 161 83 187 129 92 164 -30 358 -262 418 -81 20
-250 18 -336 -4z m282 -85 c76 -51 112 -196 71 -288 -46 -104 -155 -137 -357
-107 l-75 11 0 47 c0 72 27 179 58 234 70 124 203 169 303 103z"/>
<path d="M8810 5194 c-66 -13 -160 -46 -191 -67 -52 -35 -58 -65 -24 -122 l27
-47 44 50 c108 124 308 150 405 53 43 -43 59 -91 59 -182 l0 -66 -42 -16 c-24
-9 -95 -29 -158 -45 -326 -85 -440 -169 -440 -327 0 -148 121 -245 304 -245
89 0 160 19 256 67 41 21 78 40 83 41 4 2 7 -6 7 -18 0 -11 7 -34 15 -50 l16
-30 149 0 c93 0 150 4 150 10 0 6 -7 10 -15 10 -8 0 -24 15 -35 33 -19 30 -20
51 -20 343 0 340 -4 369 -60 457 -33 52 -93 95 -180 128 -44 18 -81 22 -190
25 -74 1 -146 0 -160 -2z m309 -840 c-22 -27 -115 -64 -175 -70 -120 -13 -194
47 -194 157 0 121 73 190 265 252 l110 36 3 -181 c2 -123 -1 -185 -9 -194z"/>
<path d="M9790 5180 c-25 -10 -88 -28 -140 -41 -52 -12 -97 -24 -98 -25 -2 -2
11 -16 30 -32 l33 -30 3 -397 3 -396 -31 -30 c-16 -17 -30 -32 -30 -35 0 -2
88 -4 195 -4 176 0 225 6 180 24 -40 15 -45 62 -45 389 l0 314 30 41 c39 55
80 74 165 80 61 3 74 1 104 -20 19 -12 44 -36 55 -51 20 -27 21 -42 24 -360 2
-183 0 -342 -3 -354 -3 -12 -15 -32 -27 -43 l-22 -20 192 0 c106 0 192 2 192
5 0 2 -11 15 -24 28 -22 22 -24 33 -30 178 -3 85 -5 233 -3 329 2 165 3 177
26 213 38 61 89 89 174 94 63 4 76 2 106 -19 19 -12 44 -41 55 -63 20 -38 21
-55 21 -372 0 -330 0 -331 -22 -355 -13 -14 -23 -27 -23 -31 0 -4 88 -7 195
-7 l195 0 -32 29 -33 29 -6 349 c-6 406 -7 411 -98 504 -44 45 -68 61 -110 73
-139 41 -295 1 -414 -105 l-54 -48 -24 37 c-60 92 -167 137 -309 130 -104 -5
-173 -35 -257 -111 -57 -53 -57 -52 -68 23 -3 25 -12 57 -18 71 l-12 25 -45
-16z"/>
<path d="M11590 5186 c-78 -18 -122 -39 -170 -82 -59 -53 -80 -100 -80 -176 0
-133 65 -208 270 -315 222 -116 260 -147 260 -218 0 -89 -68 -135 -200 -135
-115 0 -178 26 -257 107 l-63 63 0 -85 c0 -97 2 -99 106 -135 179 -63 428 -40
553 50 67 49 95 101 99 185 7 140 -47 204 -283 330 -210 113 -255 152 -255
221 0 95 160 157 295 114 56 -17 119 -58 141 -91 10 -15 22 -25 26 -23 4 3 8
36 8 74 l0 69 -53 19 c-112 42 -281 54 -397 28z"/>
</g>
</svg>
